<?xml version="1.0" standalone="no"?>
<!DOCTYPE svg PUBLIC "-//W3C//DTD SVG 20010904//EN"
 "http://www.w3.org/TR/2001/REC-SVG-20010904/DTD/svg10.dtd">
<svg version="1.0" xmlns="http://www.w3.org/2000/svg"
 width="300.000000pt" height="300.000000pt" viewBox="0 0 300.000000 300.000000"
 preserveAspectRatio="xMidYMid meet">

<g transform="translate(0.000000,300.000000) scale(0.100000,-0.100000)"
fill="#000000" stroke="none">
<path d="M2472 1965 c-96 -21 -196 -71 -243 -122 -80 -87 -23 -128 72 -53 102
80 238 130 312 115 34 -8 57 -22 57 -35 0 -19 -56 -73 -104 -100 -60 -35 -66
-36 -66 -11 0 26 -38 38 -57 18 -9 -8 -59 -100 -113 -204 -95 -184 -98 -188
-131 -191 -40 -4 -59 -18 -59 -43 0 -38 83 -55 196 -40 105 15 190 44 262 90
110 71 139 167 73 235 -19 20 -54 43 -77 52 l-42 16 68 34 c251 126 142 302
-148 239z m76 -352 c18 -14 38 -36 44 -49 28 -61 -58 -140 -180 -168 -37 -8
-67 -14 -69 -13 -1 2 28 62 65 135 73 146 73 145 140 95z"/>
<path d="M2491 1523 c-13 -28 -13 -28 8 -9 22 20 27 36 13 36 -5 0 -14 -12
-21 -27z"/>
<path d="M935 1915 c-42 -46 -143 -216 -230 -387 -39 -76 -73 -138 -76 -138
-3 0 -23 100 -44 223 -47 269 -56 307 -78 321 -31 19 -49 -6 -99 -140 -87
-229 -169 -412 -205 -454 -20 -22 -56 -52 -82 -65 -55 -27 -74 -47 -69 -72 6
-31 54 -40 95 -18 77 42 185 223 255 427 18 54 36 98 39 98 3 0 22 -100 43
-222 45 -269 52 -288 99 -288 19 0 40 7 47 15 6 8 74 139 150 292 114 228 149
289 194 340 58 63 67 86 40 97 -30 12 -47 6 -79 -29z"/>
<path d="M1598 1926 c-26 -7 -60 -11 -77 -8 -20 3 -34 -2 -45 -15 -66 -76 -90
-107 -120 -157 -18 -31 -37 -73 -41 -93 -3 -20 -13 -42 -21 -50 -18 -18 -18
-67 0 -86 8 -7 16 -27 18 -43 l3 -29 -150 -15 c-82 -8 -156 -19 -162 -23 -18
-11 -16 -42 2 -57 12 -10 45 -8 168 9 85 11 158 21 163 21 5 0 18 -13 27 -29
l17 -30 -102 -72 c-57 -40 -120 -84 -140 -98 -41 -28 -50 -43 -42 -66 16 -40
44 -28 186 80 113 85 142 104 154 94 8 -6 14 -18 14 -25 0 -20 47 -47 71 -41
11 3 40 -1 65 -10 44 -15 72 -15 247 3 48 5 60 10 74 32 10 15 37 48 61 75 42
46 92 136 92 167 0 8 9 29 20 45 23 35 26 68 6 84 -8 7 -18 27 -22 44 -12 58
-51 131 -98 185 -25 30 -46 59 -46 66 0 18 -45 40 -68 34 -11 -3 -44 1 -73 8
-65 17 -118 17 -181 0z m226 -90 c138 -68 206 -226 162 -378 -20 -69 -88 -148
-160 -186 -44 -23 -63 -27 -136 -27 -74 0 -92 4 -143 29 -32 17 -60 33 -62 36
-2 3 28 30 66 60 68 52 73 53 164 64 99 12 120 21 109 50 -6 14 -15 17 -43 13
-20 -3 -45 -9 -56 -13 -18 -7 -18 -6 -6 9 7 9 19 17 26 17 19 0 48 38 41 55
-11 29 -36 29 -69 -2 -79 -75 -111 -90 -204 -97 -49 -4 -96 -9 -105 -12 -13
-4 -20 5 -29 34 -27 91 23 240 102 304 98 80 234 97 343 44z m-355 -455 c-17
-14 -28 -16 -36 -9 -19 15 -6 28 29 28 l30 0 -23 -19z"/>
<path d="M1107 1902 c-3 -16 -33 -61 -65 -100 -64 -76 -128 -190 -237 -422
-107 -227 -126 -249 -213 -260 l-45 -5 27 -32 c56 -66 146 -65 204 1 15 18 55
88 87 157 79 164 183 367 208 404 12 17 44 56 71 88 43 50 51 65 51 99 0 33
-7 45 -33 69 -40 36 -48 36 -55 1z"/>
<path d="M2834 1907 c12 -50 -12 -108 -69 -165 -45 -45 -50 -54 -37 -65 8 -6
23 -30 33 -52 53 -117 -15 -245 -171 -325 -105 -53 -194 -74 -317 -75 -62 0
-113 -3 -113 -7 0 -13 35 -41 70 -56 47 -20 187 -19 276 3 211 52 347 170 347
300 0 54 -12 85 -47 123 l-21 24 42 36 c100 89 111 186 28 262 l-28 25 7 -28z"/>
<path d="M614 1898 c3 -13 15 -75 27 -138 11 -63 21 -119 23 -125 2 -5 14 13
28 40 24 49 25 51 10 118 -10 46 -24 77 -43 98 -33 35 -54 38 -45 7z"/>
<path d="M2271 1683 c-19 -8 -43 -12 -52 -10 -17 5 -17 3 -4 -23 12 -24 43
-47 50 -38 5 6 45 88 43 87 -2 0 -18 -7 -37 -16z"/>
<path d="M368 1337 c-76 -146 -162 -228 -260 -245 l-43 -8 37 -37 c34 -35 53
-42 108 -37 63 5 156 85 213 183 l26 43 -17 87 c-9 48 -19 87 -22 87 -3 0 -22
-33 -42 -73z"/>
</g>
</svg>
